<svg xmlns="http://www.w3.org/2000/svg" version="1.1" xmlns:xlink="http://www.w3.org/1999/xlink" xmlns:svgjs="http://svgjs.dev/svgjs" width="1000" height="622" viewBox="0 0 1000 622"><g transform="matrix(1,0,0,1,-1.8385668247865397,0.2518218623481516)"><svg viewBox="0 0 397 247" data-background-color="#ffffff" preserveAspectRatio="xMidYMid meet" height="622" width="1000" xmlns="http://www.w3.org/2000/svg" xmlns:xlink="http://www.w3.org/1999/xlink"><g id="tight-bounds" transform="matrix(1,0,0,1,0.7299110294402453,-0.09999999999999432)"><svg viewBox="0 0 395.52 247.2" height="247.2" width="395.52"><g><svg></svg></g><g><svg viewBox="0 0 395.52 247.2" height="247.2" width="395.52"><g transform="matrix(1,0,0,1,39.55199999999999,72.74065093962415)"><svg viewBox="0 0 316.416 101.71869812075168" height="101.71869812075168" width="316.416"><g><svg viewBox="0 0 316.416 101.71869812075168" height="101.71869812075168" width="316.416"><g><svg viewBox="0 0 316.416 101.71869812075168" height="101.71869812075168" width="316.416"><g><svg viewBox="0 0 316.416 101.71869812075168" height="101.71869812075168" width="316.416"><g><svg viewBox="0 0 316.416 101.71869812075168" height="101.71869812075168" width="316.416"><g><svg viewBox="0 0 316.416 101.71869812075168" height="101.71869812075168" width="316.416"><g transform="matrix(1,0,0,1,0,0)"><svg width="316.416" viewBox="2.299999952316284 -40.20000076293945 125.03999328613281 40.20000076293945" height="101.71869812075168" data-palette-color="#6936f5"><path d="M45.7-2.3L44.6-0.05 28.9-0.05 28.9-1.85 33.6-5.55 33.6-18.35 14.4-18.35 14.4-4.05 19.7-2.3 18.6-0.05 2.9-0.05 2.9-1.85 7.6-5.55 7.6-35.35 2.3-37.05 3.45-39.3 19.15-39.3 19.15-37.5 14.4-33.75 14.4-20.85 33.6-20.85 33.6-35.35 28.3-37.05 29.45-39.3 45.15-39.3 45.15-37.5 40.4-33.75 40.4-4 45.7-2.3ZM88.9-2.3L87.75-0.05 78.15-0.05 67.45-17.7 65.1-19.35 65.95-21.05 68.65-21.05Q71.95-21.05 73.82-22.75 75.7-24.45 75.7-27.45L75.7-27.45Q75.7-31.35 73.57-33.88 71.45-36.4 67.35-36.4L67.35-36.4Q64.7-36.4 62.4-34.75L62.4-34.75 62.4-4 67.7-2.25 66.6 0 50.9 0 50.9-1.8 55.6-5.5 55.6-35.4 50.3-37.05 51.45-39.3 57.75-39.3Q62.3-39.3 66.6-39.6L66.6-39.6Q69.8-39.8 71.3-39.8L71.3-39.8Q74.75-39.8 77.45-38.45 80.15-37.1 81.62-34.77 83.1-32.45 83.1-29.7L83.1-29.7Q83.1-27.25 81.57-25 80.05-22.75 77.55-21.05 75.05-19.35 72.25-18.45L72.25-18.45 75.65-17.35 83.1-5.05 88.9-2.3ZM127.34-40.2L127.34-27.45 125.59-26.85 118.84-36.75 113.05-36.75 113.05-3.95 118.34-2.25 117.25 0 101.55 0 101.55-1.8 106.25-5.5 106.25-36.75 100.59-36.75 93.84-26.85 92.09-27.45 92.09-40.2 95-39.3 124.44-39.3 127.34-40.2Z" opacity="1" transform="matrix(1,0,0,1,0,0)" fill="#6936f5" class="undefined-text-0" data-fill-palette-color="primary" id="text-0"></path></svg></g></svg></g></svg></g></svg></g></svg></g></svg></g></svg></g><g mask="url(#9f08d05b-3887-497a-a494-73a89a008247)"><g transform="matrix(4.136261131556069, 0, 0, 4.136261131556069, 1, 2.680340051099961)"><svg xmlns="http://www.w3.org/2000/svg" data-name="Layer 1" viewBox="2.430551767349243 20.79190444946289 95.1390609741211 58.46809768676758" x="0" y="0" height="58.46809768676758" width="95.1390609741211" class="icon-none" data-fill-palette-color="accent" id="none"><path d="M62.78 23l32 55.42 1.3-2.26h-64l1.3 2.26L65.37 23a1.5 1.5 0 0 0-2.59-1.51L30.79 77a1.51 1.51 0 0 0 1.3 2.26h64A1.51 1.51 0 0 0 97.37 77l-32-55.42A1.5 1.5 0 0 0 62.78 23Z" fill="#bb84e8" data-fill-palette-color="accent"></path><path d="M34.63 23l32 55.42 1.3-2.26h-64l1.3 2.26L37.22 23a1.5 1.5 0 0 0-2.59-1.51L2.63 77a1.51 1.51 0 0 0 1.3 2.26h64A1.51 1.51 0 0 0 69.21 77l-32-55.42A1.5 1.5 0 0 0 34.63 23Z" fill="#bb84e8" data-fill-palette-color="accent"></path></svg></g></g></svg></g><defs><mask id="6378df40-d789-4e4e-bf11-cf1aec7bb675"><rect width="640" height="400" fill="white"></rect><rect width="348.05760000000004" height="149.74538487586082" fill="black" x="145.97119999999998" y="125.12730756206959" id="transform-me" transform="matrix(1,0,0,1,-122.24000000000001,-76.4)"></rect></mask><mask id="9f08d05b-3887-497a-a494-73a89a008247"><rect width="640" height="400" fill="white"></rect><rect width="348.05760000000004" height="149.74538487586082" fill="black" x="145.97119999999998" y="125.12730756206959" id="transform-me" transform="matrix(1,0,0,1,-122.24000000000001,-76.4)"></rect></mask></defs></svg><rect width="395.52" height="247.2" fill="none" stroke="none" visibility="hidden"></rect></g></svg></g></svg>